<?xml version="1.0" encoding="UTF-8"?>
<svg xmlns="http://www.w3.org/2000/svg" xmlns:xlink="http://www.w3.org/1999/xlink" version="1.1" viewBox="0 0 792 1224">
  <!-- Generator: Adobe Illustrator 30.1.0, SVG Export Plug-In . SVG Version: 2.1.1 Build 136)  -->
  <defs>
    <style>
      .st0 {
        fill: #68100d;
      }

      .st1 {
        fill: #aee2fa;
        stroke: #231f20;
      }

      .st1, .st2 {
        stroke-miterlimit: 10;
      }

      .st2 {
        fill: url(#linear-gradient);
        stroke: #9e1f63;
      }
    </style>
    <linearGradient id="linear-gradient" x1="116.86" y1="656.62" x2="674.89" y2="656.62" gradientUnits="userSpaceOnUse">
      <stop offset="0" stop-color="#7d1416"/>
      <stop offset="1" stop-color="#5d1a55"/>
    </linearGradient>
  </defs>
  <g id="background">
    <rect class="st1" width="792" height="1224"/>
  </g>
  <g id="Layer_2">
    <path class="st2" d="M183.59,749.91c26.47,38.4,51.2,61.13,87.81,94.33,27.81,25.22,66.85,57.65,117.26,90.82,26.45-18.81,62.09-46.33,101.26-83.83,2.11-2.02,13.38-12.83,25.74-25.63,66.37-68.74,119.33-123.6,145.31-206,23.46-74.41,10.84-126.65,7.91-137.84-5.12-19.55-11.48-31.36-13.29-34.62-21.74-39.21-62.43-64.3-97.1-68.35-60.28-7.05-128.57,46.39-148.61,133.04-26.4-85.57-97.01-138.36-163.57-131.48-40.49,4.19-83.37,30.86-106.29,69.99-17.6,30.05-21.55,64.24-22.16,70-1.56,14.55-.98,26.05-.27,40.01.49,9.67,2.36,39.77,9.69,70.29,13.56,56.48,41.97,98.45,56.32,119.26Z"/>
  </g>
  <g id="Layer_3">
    <text/>
    <rect class="st0" x="191.4" y="150.83" width="12.68" height="155.54"/>
    <rect class="st0" x="234.87" y="150.83" width="14.49" height="155.54"/>
    <rect class="st0" x="249.35" y="265.58" width="69.72" height="40.79"/>
    <rect class="st0" x="338.09" y="150.83" width="8.99" height="155.54"/>
    <rect class="st0" x="347.09" y="285.98" width="68.88" height="20.39"/>
    <rect class="st0" x="405.2" y="150.83" width="10.77" height="135.15"/>
    <rect class="st0" x="338.09" y="150.83" width="77.87" height="16.3"/>
    <rect class="st0" x="438.6" y="150.83" width="12.68" height="155.54" transform="translate(-39.14 102.53) rotate(-12.6)"/>
    <rect class="st0" x="478.44" y="150.46" width="13.58" height="158.02" transform="translate(74.01 -115.5) rotate(14.68)"/>
    <rect class="st0" x="524.62" y="158.98" width="14.49" height="145.58"/>
    <rect class="st0" x="526.89" y="296.51" width="71.53" height="12.48"/>
    <rect class="st0" x="524.62" y="158.98" width="83.31" height="8.15"/>
    <rect class="st0" x="524.62" y="225.08" width="76.06" height="6.69"/>
    <rect class="st0" x="339.6" y="962.93" width="16.66" height="137.86"/>
    <rect class="st0" x="423.17" y="957.19" width="15.34" height="143.61"/>
    <rect class="st0" x="339.6" y="1087.39" width="95.91" height="13.4"/>
  </g>
</svg>